HIERARCHY
ROOT Hips
{
  OFFSET 0.000000 95.000000 0.000000
  CHANNELS 6 Xposition Yposition Zposition Zrotation Xrotation Yrotation
  JOINT Spine
  {
    OFFSET 0.000000 10.000000 0.000000
    CHANNELS 3 Zrotation Xrotation Yrotation
    JOINT Spine1
    {
      OFFSET 0.000000 12.000000 0.000000
      CHANNELS 3 Zrotation Xrotation Yrotation
      JOINT Spine2
      {
        OFFSET 0.000000 12.000000 0.000000
        CHANNELS 3 Zrotation Xrotation Yrotation
        JOINT Neck
        {
          OFFSET 0.000000 10.000000 0.000000
          CHANNELS 3 Zrotation Xrotation Yrotation
          JOINT Head
          {
            OFFSET 0.000000 8.000000 0.000000
            CHANNELS 3 Zrotation Xrotation Yrotation
            End Site
            {
              OFFSET 0.000000 10.000000 0.000000
            }
          }
        }
        JOINT LeftShoulder
        {
          OFFSET 6.000000 8.000000 0.000000
          CHANNELS 3 Zrotation Xrotation Yrotation
          JOINT LeftArm
          {
            OFFSET 12.000000 0.000000 0.000000
            CHANNELS 3 Zrotation Xrotation Yrotation
            JOINT LeftForeArm
            {
              OFFSET 24.000000 0.000000 0.000000
              CHANNELS 3 Zrotation Xrotation Yrotation
              JOINT LeftHand
              {
                OFFSET 22.000000 0.000000 0.000000
                CHANNELS 3 Zrotation Xrotation Yrotation
                JOINT LeftHandThumb1
                {
                  OFFSET 1.800000 -1.400000 0.500000
                  CHANNELS 3 Zrotation Xrotation Yrotation
                  JOINT LeftHandThumb2
                  {
                    OFFSET 2.400000 0.000000 0.000000
                    CHANNELS 3 Zrotation Xrotation Yrotation
                    JOINT LeftHandThumb3
                    {
                      OFFSET 1.900000 0.000000 0.000000
                      CHANNELS 3 Zrotation Xrotation Yrotation
                      End Site
                      {
                        OFFSET 1.600000 0.000000 0.000000
                      }
                    }
                  }
                }
                JOINT LeftHandIndex1
                {
                  OFFSET 6.600000 1.200000 0.300000
                  CHANNELS 3 Zrotation Xrotation Yrotation
                  JOINT LeftHandIndex2
                  {
                    OFFSET 2.000000 0.000000 0.000000
                    CHANNELS 3 Zrotation Xrotation Yrotation
                    JOINT LeftHandIndex3
                    {
                      OFFSET 1.200000 0.000000 0.000000
                      CHANNELS 3 Zrotation Xrotation Yrotation
                      End Site
                      {
                        OFFSET 1.000000 0.000000 0.000000
                      }
                    }
                  }
                }
                JOINT LeftHandMiddle1
                {
                  OFFSET 7.200000 0.000000 0.300000
                  CHANNELS 3 Zrotation Xrotation Yrotation
                  JOINT LeftHandMiddle2
                  {
                    OFFSET 3.000000 0.000000 0.000000
                    CHANNELS 3 Zrotation Xrotation Yrotation
                    JOINT LeftHandMiddle3
                    {
                      OFFSET 2.000000 0.000000 0.000000
                      CHANNELS 3 Zrotation Xrotation Yrotation
                      End Site
                      {
                        OFFSET 1.600000 0.000000 0.000000
                      }
                    }
                  }
                }
                JOINT LeftHandRing1
                {
                  OFFSET 7.100000 -1.000000 0.400000
                  CHANNELS 3 Zrotation Xrotation Yrotation
                  JOINT LeftHandRing2
                  {
                    OFFSET 2.600000 0.000000 0.000000
                    CHANNELS 3 Zrotation Xrotation Yrotation
                    JOINT LeftHandRing3
                    {
                      OFFSET 1.600000 0.000000 0.000000
                      CHANNELS 3 Zrotation Xrotation Yrotation
                      End Site
                      {
                        OFFSET 1.300000 0.000000 0.000000
                      }
                    }
                  }
                }
                JOINT LeftHandPinky1
                {
                  OFFSET 6.500000 -2.000000 0.500000
                  CHANNELS 3 Zrotation Xrotation Yrotation
                  JOINT LeftHandPinky2
                  {
                    OFFSET 1.900000 0.000000 0.000000
                    CHANNELS 3 Zrotation Xrotation Yrotation
                    JOINT LeftHandPinky3
                    {
                      OFFSET 1.400000 0.000000 0.000000
                      CHANNELS 3 Zrotation Xrotation Yrotation
                      End Site
                      {
                        OFFSET 1.300000 0.000000 0.000000
                      }
                    }
                  }
                }
              }
            }
          }
        }
        JOINT RightShoulder
        {
          OFFSET -6.000000 8.000000 0.000000
          CHANNELS 3 Zrotation Xrotation Yrotation
          JOINT RightArm
          {
            OFFSET -12.000000 0.000000 0.000000
            CHANNELS 3 Zrotation Xrotation Yrotation
            JOINT RightForeArm
            {
              OFFSET -24.000000 0.000000 0.000000
              CHANNELS 3 Zrotation Xrotation Yrotation
              JOINT RightHand
              {
                OFFSET -22.000000 0.000000 0.000000
                CHANNELS 3 Zrotation Xrotation Yrotation
                JOINT RightHandThumb1
                {
                  OFFSET -1.800000 -1.400000 0.500000
                  CHANNELS 3 Zrotation Xrotation Yrotation
                  JOINT RightHandThumb2
                  {
                    OFFSET -2.400000 0.000000 0.000000
                    CHANNELS 3 Zrotation Xrotation Yrotation
                    JOINT RightHandThumb3
                    {
                      OFFSET -1.900000 0.000000 0.000000
                      CHANNELS 3 Zrotation Xrotation Yrotation
                      End Site
                      {
                        OFFSET -1.600000 0.000000 0.000000
                      }
                    }
                  }
                }
                JOINT RightHandIndex1
                {
                  OFFSET -6.600000 1.200000 0.300000
                  CHANNELS 3 Zrotation Xrotation Yrotation
                  JOINT RightHandIndex2
                  {
                    OFFSET -2.000000 0.000000 0.000000
                    CHANNELS 3 Zrotation Xrotation Yrotation
                    JOINT RightHandIndex3
                    {
                      OFFSET -1.200000 0.000000 0.000000
                      CHANNELS 3 Zrotation Xrotation Yrotation
                      End Site
                      {
                        OFFSET -1.000000 0.000000 0.000000
                      }
                    }
                  }
                }
                JOINT RightHandMiddle1
                {
                  OFFSET -7.200000 0.000000 0.300000
                  CHANNELS 3 Zrotation Xrotation Yrotation
                  JOINT RightHandMiddle2
                  {
                    OFFSET -3.000000 0.000000 0.000000
                    CHANNELS 3 Zrotation Xrotation Yrotation
                    JOINT RightHandMiddle3
                    {
                      OFFSET -2.000000 0.000000 0.000000
                      CHANNELS 3 Zrotation Xrotation Yrotation
                      End Site
                      {
                        OFFSET -1.600000 0.000000 0.000000
                      }
                    }
                  }
                }
                JOINT RightHandRing1
                {
                  OFFSET -7.100000 -1.000000 0.400000
                  CHANNELS 3 Zrotation Xrotation Yrotation
                  JOINT RightHandRing2
                  {
                    OFFSET -2.600000 0.000000 0.000000
                    CHANNELS 3 Zrotation Xrotation Yrotation
                    JOINT RightHandRing3
                    {
                      OFFSET -1.600000 0.000000 0.000000
                      CHANNELS 3 Zrotation Xrotation Yrotation
                      End Site
                      {
                        OFFSET -1.300000 0.000000 0.000000
                      }
                    }
                  }
                }
                JOINT RightHandPinky1
                {
                  OFFSET -6.500000 -2.000000 0.500000
                  CHANNELS 3 Zrotation Xrotation Yrotation
                  JOINT RightHandPinky2
                  {
                    OFFSET -1.900000 0.000000 0.000000
                    CHANNELS 3 Zrotation Xrotation Yrotation
                    JOINT RightHandPinky3
                    {
                      OFFSET -1.400000 0.000000 0.000000
                      CHANNELS 3 Zrotation Xrotation Yrotation
                      End Site
                      {
                        OFFSET -1.300000 0.000000 0.000000
                      }
                    }
                  }
                }
              }
            }
          }
        }
      }
    }
  }
  JOINT LeftUpLeg
  {
    OFFSET 10.000000 -5.000000 0.000000
    CHANNELS 3 Zrotation Xrotation Yrotation
    JOINT LeftLeg
    {
      OFFSET 0.000000 -42.000000 0.000000
      CHANNELS 3 Zrotation Xrotation Yrotation
      JOINT LeftFoot
      {
        OFFSET 0.000000 -42.000000 4.000000
        CHANNELS 3 Zrotation Xrotation Yrotation
        End Site
        {
          OFFSET 0.000000 0.000000 12.000000
        }
      }
    }
  }
  JOINT RightUpLeg
  {
    OFFSET -10.000000 -5.000000 0.000000
    CHANNELS 3 Zrotation Xrotation Yrotation
    JOINT RightLeg
    {
      OFFSET 0.000000 -42.000000 0.000000
      CHANNELS 3 Zrotation Xrotation Yrotation
      JOINT RightFoot
      {
        OFFSET 0.000000 -42.000000 4.000000
        CHANNELS 3 Zrotation Xrotation Yrotation
        End Site
        {
          OFFSET 0.000000 0.000000 12.000000
        }
      }
    }
  }
}
MOTION
Frames: 6
Frame Time: 0.033333
0.0000 95.0000 0.0000 0.0000 0.0000 0.0000 0.0000 0.0000 0.0000 0.0000 0.0000 0.0000 0.0000 0.0000 0.0000 0.0000 0.0000 0.0000 0.0000 0.0000 0.0000 0.0000 0.0000 0.0000 -76.2778 8.3430 10.6137 -12.5684 10.1737 -13.5981 -171.8346 6.0100 176.9366 49.4414 -9.4974 5.8616 14.0156 0.0000 0.0000 3.0252 0.0000 0.0000 -8.7427 0.5062 -1.0939 6.3088 0.0000 0.0000 2.4918 0.0000 0.0000 3.9564 -0.0931 -2.0756 14.2139 0.0000 0.0000 5.8425 0.0000 0.0000 12.5718 -0.7779 -2.6016 23.7769 0.0000 0.0000 17.1844 0.0000 0.0000 19.4132 -1.7809 -2.7094 26.0377 0.0000 0.0000 31.5464 0.0000 0.0000 0.0000 0.0000 0.0000 79.8119 -25.3182 30.0667 176.0339 41.9740 276.5985 -33.1807 -37.6834 -14.7288 -35.8063 -8.2549 0.1470 9.7217 0.0000 0.0000 13.8334 0.0000 0.0000 15.6487 0.5265 -3.9827 2.3024 0.0000 0.0000 6.8998 0.0000 0.0000 24.6852 -10.0436 48.5310 102.4366 0.0000 0.0000 23.4870 0.0000 0.0000 23.0194 -22.6705 63.5010 88.8996 0.0000 0.0000 25.1085 0.0000 0.0000 4.9545 -23.8686 64.6700 89.0854 0.0000 0.0000 23.3267 0.0000 0.0000 0.0000 0.0000 0.0000 0.0000 0.0000 0.0000 0.0000 0.0000 0.0000 0.0000 0.0000 0.0000 0.0000 0.0000 0.0000 0.0000 0.0000 0.0000
0.0000 95.0000 0.0000 0.0000 0.0000 0.0000 0.0000 0.0000 0.0000 0.0000 0.0000 0.0000 0.0000 0.0000 0.0000 0.0000 0.0000 0.0000 0.0000 0.0000 0.0000 0.0000 0.0000 0.0000 -76.1432 8.2897 10.5714 -12.4957 10.1920 -13.6761 -170.7176 4.9326 176.5211 49.9595 -9.8054 4.9897 15.1669 0.0000 0.0000 1.9734 0.0000 0.0000 -9.8395 0.6116 -1.8099 7.5181 0.0000 0.0000 3.8255 0.0000 0.0000 3.2559 -0.0575 -2.7491 14.9650 0.0000 0.0000 7.0756 0.0000 0.0000 11.7245 -0.7707 -3.1484 26.6904 0.0000 0.0000 22.9885 0.0000 0.0000 18.5373 -1.8558 -3.5634 27.1842 0.0000 0.0000 32.7637 0.0000 0.0000 0.0000 0.0000 0.0000 79.3868 -25.3068 30.2706 175.6559 42.6600 275.9858 -32.9730 -33.8888 -15.6599 -36.3162 -8.5036 0.5889 10.1417 0.0000 0.0000 15.9979 0.0000 0.0000 15.4614 0.4505 -5.3447 2.4581 0.0000 0.0000 5.9163 0.0000 0.0000 22.6960 -10.9734 55.9253 95.8794 0.0000 0.0000 24.9969 0.0000 0.0000 18.5975 -21.3963 66.7921 87.4885 0.0000 0.0000 28.8243 0.0000 0.0000 1.9371 -23.7742 68.6819 84.0173 0.0000 0.0000 27.6300 0.0000 0.0000 0.0000 0.0000 0.0000 0.0000 0.0000 0.0000 0.0000 0.0000 0.0000 0.0000 0.0000 0.0000 0.0000 0.0000 0.0000 0.0000 0.0000 0.0000
0.0000 95.0000 0.0000 0.0000 0.0000 0.0000 0.0000 0.0000 0.0000 0.0000 0.0000 0.0000 0.0000 0.0000 0.0000 0.0000 0.0000 0.0000 0.0000 0.0000 0.0000 0.0000 0.0000 0.0000 -76.2429 8.6824 11.0513 -11.9683 10.2565 -13.5913 -170.1394 4.3998 176.8359 49.8794 -9.5614 6.0471 15.1757 0.0000 0.0000 3.5771 0.0000 0.0000 -9.6144 0.5190 -0.9113 7.8168 0.0000 0.0000 3.9771 0.0000 0.0000 3.4713 -0.0830 -2.0341 15.3741 0.0000 0.0000 8.7007 0.0000 0.0000 10.9623 -0.7139 -2.3361 25.9646 0.0000 0.0000 23.2571 0.0000 0.0000 16.9575 -1.6108 -2.3532 24.3653 0.0000 0.0000 29.1065 0.0000 0.0000 0.0000 0.0000 0.0000 79.3568 -25.1372 30.0858 175.4725 44.9660 274.6151 -37.8113 -37.4905 -9.5035 -33.0679 -6.6277 -2.7578 11.7728 0.0000 0.0000 20.6011 0.0000 0.0000 15.9261 0.5283 -4.4770 3.7965 0.0000 0.0000 2.9244 0.0000 0.0000 32.7342 -10.4945 39.5012 81.4599 0.0000 0.0000 18.3597 0.0000 0.0000 35.7428 -29.0978 61.3075 72.8349 0.0000 0.0000 23.1104 0.0000 0.0000 23.2067 -39.8409 72.4344 63.2637 0.0000 0.0000 29.5069 0.0000 0.0000 0.0000 0.0000 0.0000 0.0000 0.0000 0.0000 0.0000 0.0000 0.0000 0.0000 0.0000 0.0000 0.0000 0.0000 0.0000 0.0000 0.0000 0.0000
0.0000 95.0000 0.0000 0.0000 0.0000 0.0000 0.0000 0.0000 0.0000 0.0000 0.0000 0.0000 0.0000 0.0000 0.0000 0.0000 0.0000 0.0000 0.0000 0.0000 0.0000 0.0000 0.0000 0.0000 -75.9367 9.1167 11.6664 -12.8936 10.5026 -13.9592 -171.3354 4.5264 175.7718 49.2752 -9.5397 5.4900 14.3237 0.0000 0.0000 4.4997 0.0000 0.0000 -9.5853 0.5747 -1.5009 8.3081 0.0000 0.0000 3.9021 0.0000 0.0000 3.4790 -0.0610 -2.7631 17.4222 0.0000 0.0000 9.6894 0.0000 0.0000 12.2185 -0.7786 -2.9711 27.4780 0.0000 0.0000 21.8461 0.0000 0.0000 18.5839 -1.7149 -2.5125 26.5158 0.0000 0.0000 29.1399 0.0000 0.0000 0.0000 0.0000 0.0000 79.1501 -24.4696 29.4007 172.8163 48.1345 271.4602 -45.5061 -34.9341 -8.4335 -33.7886 -7.1247 -1.8574 12.2071 0.0000 0.0000 0.9309 0.0000 0.0000 24.0447 0.7567 10.2523 51.4375 0.0000 0.0000 13.4463 0.0000 0.0000 29.9569 -9.4174 38.9953 92.7885 0.0000 0.0000 21.0721 0.0000 0.0000 23.6692 -14.7532 43.6632 92.8439 0.0000 0.0000 22.7059 0.0000 0.0000 11.5500 -21.2679 51.3743 87.8086 0.0000 0.0000 27.2476 0.0000 0.0000 0.0000 0.0000 0.0000 0.0000 0.0000 0.0000 0.0000 0.0000 0.0000 0.0000 0.0000 0.0000 0.0000 0.0000 0.0000 0.0000 0.0000 0.0000
0.0000 95.0000 0.0000 0.0000 0.0000 0.0000 0.0000 0.0000 0.0000 0.0000 0.0000 0.0000 0.0000 0.0000 0.0000 0.0000 0.0000 0.0000 0.0000 0.0000 0.0000 0.0000 0.0000 0.0000 -75.6965 9.4467 12.1395 -13.5920 10.6736 -14.2088 -171.8075 4.2922 175.5483 49.2752 -9.5397 5.4900 14.3237 0.0000 0.0000 4.4997 0.0000 0.0000 -9.5853 0.5747 -1.5009 8.3081 0.0000 0.0000 3.9021 0.0000 0.0000 3.4790 -0.0610 -2.7631 17.4222 0.0000 0.0000 9.6894 0.0000 0.0000 12.2185 -0.7786 -2.9711 27.4780 0.0000 0.0000 21.8461 0.0000 0.0000 18.5839 -1.7149 -2.5125 26.5158 0.0000 0.0000 29.1399 0.0000 0.0000 0.0000 0.0000 0.0000 79.0368 -23.9624 28.8549 170.5990 50.3216 268.9277 -46.3775 -32.9420 -9.4062 -33.7886 -7.1247 -1.8574 12.2071 0.0000 0.0000 0.9309 0.0000 0.0000 24.0447 0.7567 10.2523 51.4375 0.0000 0.0000 13.4463 0.0000 0.0000 29.9569 -9.4174 38.9953 92.7885 0.0000 0.0000 21.0721 0.0000 0.0000 23.6692 -14.7532 43.6632 92.8439 0.0000 0.0000 22.7059 0.0000 0.0000 11.5500 -21.2679 51.3743 87.8086 0.0000 0.0000 27.2476 0.0000 0.0000 0.0000 0.0000 0.0000 0.0000 0.0000 0.0000 0.0000 0.0000 0.0000 0.0000 0.0000 0.0000 0.0000 0.0000 0.0000 0.0000 0.0000 0.0000
0.0000 95.0000 0.0000 0.0000 0.0000 0.0000 0.0000 0.0000 0.0000 0.0000 0.0000 0.0000 0.0000 0.0000 0.0000 0.0000 0.0000 0.0000 0.0000 0.0000 0.0000 0.0000 0.0000 0.0000 -75.6867 9.8024 12.5973 -13.4506 10.6273 -13.9857 -171.8199 5.5071 175.2825 50.0883 -9.5109 6.5189 12.2484 0.0000 0.0000 9.0655 0.0000 0.0000 -8.8042 0.5659 -1.6524 7.7414 0.0000 0.0000 2.1117 0.0000 0.0000 3.9275 -0.0671 -2.8165 14.2608 0.0000 0.0000 8.6712 0.0000 0.0000 12.1306 -0.7638 -2.6095 19.8113 0.0000 0.0000 16.1695 0.0000 0.0000 16.9175 -1.4143 -1.0644 21.4232 0.0000 0.0000 23.8860 0.0000 0.0000 0.0000 0.0000 0.0000 78.9483 -23.2411 28.0397 165.8698 56.1038 261.7966 -44.8540 -14.5622 -16.9789 -35.7370 -9.9824 5.2275 18.1603 0.0000 0.0000 6.4366 0.0000 0.0000 27.1279 -0.1264 23.0641 60.9212 0.0000 0.0000 18.6865 0.0000 0.0000 23.0879 -12.3276 60.5064 74.3439 0.0000 0.0000 18.1709 0.0000 0.0000 14.9948 -16.9454 60.3778 75.1522 0.0000 0.0000 25.6301 0.0000 0.0000 -0.4453 -21.6903 67.0485 72.0183 0.0000 0.0000 31.0770 0.0000 0.0000 0.0000 0.0000 0.0000 0.0000 0.0000 0.0000 0.0000 0.0000 0.0000 0.0000 0.0000 0.0000 0.0000 0.0000 0.0000 0.0000 0.0000 0.0000
